<svg xmlns="http://www.w3.org/2000/svg" width="1040" height="500" viewBox="0 0 1040 500">
<rect width="100%" height="100%" fill="white"/>
<text x="520" y="32" text-anchor="middle" font-size="21" font-weight="600">All-corrector Y quadratic block decomposition</text>
<text x="520" y="55" text-anchor="middle" font-size="13" fill="#555">100 fixed H/V direction pairs; vector RMS at 99 detectors</text>
<line x1="90" y1="410.00" x2="970" y2="410.00" stroke="#ddd"/>
<text x="80" y="414.00" text-anchor="end" font-size="12">10^-5</text>
<line x1="90" y1="328.75" x2="970" y2="328.75" stroke="#ddd"/>
<text x="80" y="332.75" text-anchor="end" font-size="12">10^-4</text>
<line x1="90" y1="247.50" x2="970" y2="247.50" stroke="#ddd"/>
<text x="80" y="251.50" text-anchor="end" font-size="12">10^-3</text>
<line x1="90" y1="166.25" x2="970" y2="166.25" stroke="#ddd"/>
<text x="80" y="170.25" text-anchor="end" font-size="12">10^-2</text>
<line x1="90" y1="85.00" x2="970" y2="85.00" stroke="#ddd"/>
<text x="80" y="89.00" text-anchor="end" font-size="12">10^-1</text>
<line x1="90.00" y1="85" x2="90.00" y2="410" stroke="#eee"/>
<text x="90.00" y="432" text-anchor="middle" font-size="11">0.1</text>
<line x1="970.00" y1="85" x2="970.00" y2="410" stroke="#eee"/>
<text x="970.00" y="432" text-anchor="middle" font-size="11">0.2</text>
<polyline points="90.00,370.66 970.00,321.74" fill="none" stroke="#2369A7" stroke-width="2.3"/>
<circle cx="90.00" cy="370.66" r="3.2" fill="white" stroke="#2369A7" stroke-width="1.6"/>
<circle cx="970.00" cy="321.74" r="3.2" fill="white" stroke="#2369A7" stroke-width="1.6"/>
<polyline points="90.00,344.47 970.00,295.57" fill="none" stroke="#D97904" stroke-width="2.3"/>
<circle cx="90.00" cy="344.47" r="3.2" fill="white" stroke="#D97904" stroke-width="1.6"/>
<circle cx="970.00" cy="295.57" r="3.2" fill="white" stroke="#D97904" stroke-width="1.6"/>
<polyline points="90.00,190.54 970.00,141.62" fill="none" stroke="#8B3FA6" stroke-width="2.3"/>
<circle cx="90.00" cy="190.54" r="3.2" fill="white" stroke="#8B3FA6" stroke-width="1.6"/>
<circle cx="970.00" cy="141.62" r="3.2" fill="white" stroke="#8B3FA6" stroke-width="1.6"/>
<line x1="350" y1="75" x2="375" y2="75" stroke="#2369A7" stroke-width="2.3"/>
<text x="381" y="79" font-size="12">Q_hh</text>
<line x1="480" y1="75" x2="505" y2="75" stroke="#D97904" stroke-width="2.3"/>
<text x="511" y="79" font-size="12">Q_vv</text>
<line x1="610" y1="75" x2="635" y2="75" stroke="#8B3FA6" stroke-width="2.3"/>
<text x="641" y="79" font-size="12">Q_hv</text>
<line x1="90" y1="410" x2="970" y2="410" stroke="#333"/>
<line x1="90" y1="85" x2="90" y2="410" stroke="#333"/>
<text x="530.0" y="465" text-anchor="middle" font-size="13">Normalized radius rho (log scale)</text>
<text x="24" y="247.5" text-anchor="middle" font-size="13" transform="rotate(-90 24 247.5)">Mean detector RMSE (um, log scale)</text>
</svg>